<svg width="59" height="32" viewBox="0 0 59 32" fill="none" xmlns="http://www.w3.org/2000/svg">
<g clip-path="url(#clip0_252_4875)">
<path d="M18.5109 22.4022C18.5109 20.6891 20.1288 19.6568 22.4571 19.6568C24.5092 19.6568 26.3245 20.6891 26.3245 22.4022H18.5109ZM22.6939 31.9561C25.9693 31.9561 29.1855 30.8799 30.4286 27.9149H31.0403C31.6914 29.8916 33.5067 32 38.7355 32C42.4055 32 45.9571 30.7042 45.9571 26.7948C45.9571 24.291 44.7929 22.5779 40.5113 22.1167L37.4134 21.8092C36.2098 21.6774 35.6376 21.4138 35.6376 20.6451C35.6376 19.7007 36.7623 19.3054 38.6565 19.3054C40.9058 19.3054 42.0108 20.2498 42.0108 21.2381H49.5481V26.2677C49.5481 29.9135 51.1661 31.385 54.7572 31.385H58.8613V27.2999H56.099C54.5599 27.2999 53.9679 26.5312 53.9679 25.1475V21.2381L58.8613 21.2381V17.5923H55.1715C54.2836 17.5923 53.5141 17.0432 53.5141 15.6595V12.1235H49.1141V13.7927C49.1141 15.5058 49.5087 17.1969 51.7581 17.1969V17.5923H46.1741V19.7007H45.6808C44.5167 17.0432 42.1686 16.1647 38.4986 16.1647C34.7102 16.1647 31.6519 17.5483 31.6519 21.2381C31.6519 24.4228 34.0789 25.5868 36.4071 25.8064L39.9982 26.1578C41.1229 26.2896 41.8529 26.4653 41.8529 27.3658C41.8529 28.2663 40.8862 28.7934 38.7157 28.7934C36.3283 28.7934 35.3219 27.6733 35.3219 26.8607H26.3639C25.8706 28.0686 24.0159 28.3761 22.6939 28.3761C20.0696 28.3761 18.4912 27.4317 18.4912 25.1036H30.7442V23.083C30.7442 19.1297 27.6464 16.1647 22.4374 16.1647C19.0041 16.1647 16.3009 17.2848 15.0184 19.8105H14.466V17.5923H10.7565C9.8686 17.5923 9.0991 17.0432 9.0991 16.1208C9.0991 15.1983 9.8686 14.6053 10.7565 14.6053H14.466V10.4982H9.21745C6.19856 10.4982 4.91608 11.3109 4.7385 13.5731C4.63985 14.803 5.15288 17.1311 7.28385 17.1311V17.5703H0V21.2162H5.07389V31.3631H9.51347V21.2381H14.466C14.2292 22.0508 14.1108 22.9952 14.1108 24.0714C14.1108 29.8916 17.544 31.9561 22.6939 31.9561Z" fill="white"/>
<path d="M39.6825 7.05012L46.6082 0H41.3202L37.6502 3.73371C36.565 4.8099 36.0322 5.62253 35.8744 6.36927H35.1444V0H25.8706L23.0885 8.71931C22.7728 9.75157 22.5163 11.5745 22.5163 12.7385H21.7074C21.7074 11.5745 21.5495 9.83942 21.1746 8.71931L18.432 0H13.5583L18.2149 14.5834H26.0877L30.3102 1.42759H30.764V14.5834H35.164V8.45575H35.8941C36.0915 9.15857 36.5847 10.0151 37.8672 11.3109L41.1426 14.5834H47.062L39.6825 7.05012Z" fill="white"/>
</g>
<defs>
<clipPath id="clip0_252_4875">
<rect width="58.8613" height="32" fill="white"/>
</clipPath>
</defs>
</svg>
